<svg version="1.1" xmlns="http://www.w3.org/2000/svg" xmlns:xlink="http://www.w3.org/1999/xlink" width="48" height="48"><defs><linearGradient x1="16.74642" y1="14.67396" x2="34.48239" y2="36.55483" gradientUnits="userSpaceOnUse" id="color-1"><stop offset="0.45" stop-color="#000000" stop-opacity="0.28"></stop><stop offset="1" stop-color="#000000" stop-opacity="0"></stop></linearGradient><linearGradient x1="33.625" y1="14.375" x2="43" y2="23.75" gradientUnits="userSpaceOnUse" id="color-2"><stop offset="0" stop-color="#000000" stop-opacity="0.28"></stop><stop offset="1" stop-color="#000000" stop-opacity="0"></stop></linearGradient><filter id="dropshadow-base"><feColorMatrix type="matrix" values="0 0 0 0 0  0 0 0 0 0  0 0 0 0 0  0 0 0 .8 0"></feColorMatrix> <feOffset dx="0" dy="1"></feOffset> <feGaussianBlur stdDeviation="1"></feGaussianBlur> <feComposite in="SourceGraphic"></feComposite></filter><filter id="dropshadow-banner" x="-10%" y="-10%" width="120%" height="130%"><feColorMatrix type="matrix" values="0 0 0 0 0  0 0 0 0 0  0 0 0 0 0  0 0 0 .4 0"></feColorMatrix> <feOffset dx="0" dy="1"></feOffset> <feGaussianBlur stdDeviation="0.5"></feGaussianBlur> <feComposite in="SourceGraphic"></feComposite></filter></defs><g fill="none" fill-rule="nonzero" stroke="none" stroke-width="none" stroke-linecap="butt" stroke-linejoin="miter" stroke-miterlimit="10" stroke-dasharray="" stroke-dashoffset="0" font-family="none" font-weight="none" font-size="none" text-anchor="none" style="mix-blend-mode: normal"><path d="M7,43c-1.10457,0 -2,-0.89543 -2,-2v-34c0,-1.10457 0.89543,-2 2,-2l26,0l10,10v26c0,1.10457 -0.89543,2 -2,2z" id="base 1 13 2" fill="#40c79e" stroke-width="1"></path><path d="M26.75544,31.39826l4.49816,1.92778v-0.38289l-4.02481,-1.75079zM29.18113,19.97521h-7.13348l0,8.83763l1.95235,-0.84927l5.18114,2.2538zM31.2536,17.90275l-0.91614,0l0.91614,0.91614zM19.97809,31.94104l0.39511,-0.16933l-0.39476,-0.39476zM29.18115,14.67396c0.57252,0 1.09063,0.23185 1.46561,0.60684l3.22879,3.22879c0.37498,0.37498 0.60684,0.8931 0.60684,1.46561v16.57963l-7.25359,-3.10868l-7.25359,3.10868l-3.22879,-3.22879l0.01036,-16.57963c0,-1.14503 0.91706,-2.07245 2.06209,-2.07245z" fill="url(#color-1)" stroke-width="1"></path><path d="M29.18113,14.67396h-10.36227c-1.14503,0 -2.06209,0.92742 -2.06209,2.07245l-0.01036,16.57963l7.25359,-3.10868l7.25359,3.10868v-16.57963c0,-1.14503 -0.92742,-2.07245 -2.07245,-2.07245zM29.18113,30.21736l-5.18113,-2.25379l-5.18113,2.25379v-13.47095h10.36227z" fill="none" stroke-width="0"></path><path d="M31.25359,16.74641v16.57963l-7.25359,-3.10868l-7.25359,3.10868l0.01036,-16.57963c0,-1.14503 0.91706,-2.07245 2.06209,-2.07245h10.36227c1.14503,0 2.07245,0.92742 2.07245,2.07245zM29.18113,16.74641h-10.36227v13.47095l5.18113,-2.25379l5.18113,2.25379z" fill="#ffffff" stroke-width="0"></path><path d="M2,24c0,-12.15026 9.84974,-22 22,-22c12.15026,0 22,9.84974 22,22c0,12.15026 -9.84974,22 -22,22c-12.15026,0 -22,-9.84974 -22,-22z" id="base 1 9 1" fill="none" stroke-width="1"></path><path d="M2,24c0,-12.15026 9.84974,-22 22,-22c12.15026,0 22,9.84974 22,22c0,12.15026 -9.84974,22 -22,22c-12.15026,0 -22,-9.84974 -22,-22z" id="base 1 5 1" fill="none" stroke-width="1"></path><path d="M2,24c0,-12.15026 9.84974,-22 22,-22c12.15026,0 22,9.84974 22,22c0,12.15026 -9.84974,22 -22,22c-12.15026,0 -22,-9.84974 -22,-22z" id="base 1 1 1" fill="none" stroke-width="1"></path><g fill="#000000" stroke-width="1" font-family="Roboto, sans-serif" font-weight="400" font-size="14" text-anchor="start"></g><rect x="2" y="2" width="44" height="22" fill="none" stroke-width="1"></rect><path d="M2,24v-22h44v22z" fill="none" stroke-width="1"></path><path d="M2,24v-22h44v22z" fill="none" stroke-width="1"></path><path d="M2,24v-22h44v22z" fill="none" stroke-width="1"></path><path d="M2,24v-22h44v22z" fill="none" stroke-width="1"></path><g fill="#000000" stroke-width="1" font-family="Roboto, sans-serif" font-weight="400" font-size="14" text-anchor="start"></g><rect x="2" y="2" width="44" height="22" fill="none" stroke-width="1"></rect><path d="M2,24v-22h44v22z" fill="none" stroke-width="1"></path><path d="M2,24v-22h44v22z" fill="none" stroke-width="1"></path><path d="M2,24v-22h44v22z" fill="none" stroke-width="1"></path><path d="M2,24v-22h44v22z" fill="none" stroke-width="1"></path><g fill="#000000" stroke-width="1" font-family="Roboto, sans-serif" font-weight="400" font-size="14" text-anchor="start"></g><rect x="2" y="2" width="44" height="22" fill="none" stroke-width="1"></rect><path d="M2,24v-22h44v22z" fill="none" stroke-width="1"></path><path d="M2,24v-22h44v22z" fill="none" stroke-width="1"></path><path d="M2,24v-22h44v22z" fill="none" stroke-width="1"></path><path d="M2,24v-22h44v22z" fill="none" stroke-width="1"></path><path d="M33.625,14.375l9.375,0.625v8.75z" fill="url(#color-2)" stroke-width="1"></path><path d="M33,5l10,10h-8c-1,0 -2,-1 -2,-2z" fill="#5ee5bc" stroke-width="1"></path></g></svg>